<svg id="Capa_1" enable-background="new 0 0 512 512" viewBox="0 0 512 512" xmlns="http://www.w3.org/2000/svg"><path d="m188.399 241.808h195.25v30h-195.25z"/><path d="m128.351 241.808h30.024v30h-30.024z"/><path d="m188.399 181.76h195.25v30h-195.25z"/><path d="m128.351 181.76h30.024v30h-30.024z"/><path d="m188.399 301.856h195.25v30h-195.25z"/><path d="m128.351 301.856h30.024v30h-30.024z"/><path d="m188.399 361.904h195.25v30h-195.25z"/><path d="m128.351 361.904h30.024v30h-30.024z"/><path d="m188.399 421.952h195.25v30h-195.25z"/><path d="m128.351 421.952h30.024v30h-30.024z"/><path d="m231.223 151.829 24.777-24.777 24.777 24.777 21.213-21.213-24.777-24.777 24.777-24.776-21.213-21.213-24.777 24.777-24.777-24.777-21.213 21.213 24.777 24.776-24.777 24.777z"/><path d="m357.878 0h-304.575v512h405.395v-411.181zm8.787 51.213 40.819 40.819h-40.819zm-283.362 430.787v-452h253.362v92.032h92.032v359.968z"/></svg>